<?xml version="1.0" encoding="UTF-8"?>
<svg xmlns="http://www.w3.org/2000/svg" xmlns:xlink="http://www.w3.org/1999/xlink" width="35px" height="35px" viewBox="0 0 35 35" version="1.1">
<defs>
<filter id="alpha" filterUnits="objectBoundingBox" x="0%" y="0%" width="100%" height="100%">
  <feColorMatrix type="matrix" in="SourceGraphic" values="0 0 0 0 1 0 0 0 0 1 0 0 0 0 1 0 0 0 1 0"/>
</filter>
<mask id="mask0">
  <g filter="url(#alpha)">
<rect x="0" y="0" width="35" height="35" style="fill:rgb(0%,0%,0%);fill-opacity:0.4;stroke:none;"/>
  </g>
</mask>
<clipPath id="clip1">
  <rect x="0" y="0" width="35" height="35"/>
</clipPath>
<g id="surface5" clip-path="url(#clip1)">
<path style=" stroke:none;fill-rule:nonzero;fill:rgb(47.843137%,80.784314%,100%);fill-opacity:1;" d="M 7.421875 18.039062 L 14.261719 18.039062 C 14.144531 24.851562 12.804688 25.972656 8.617188 28.453125 C 8.136719 28.742188 7.976562 29.355469 8.269531 29.851562 C 8.558594 30.332031 9.171875 30.492188 9.667969 30.203125 C 14.597656 27.285156 16.320312 25.507812 16.320312 17.019531 L 16.320312 9.160156 C 16.320312 6.664062 14.292969 4.652344 11.8125 4.652344 L 7.4375 4.652344 C 4.871094 4.652344 2.929688 6.589844 2.929688 9.160156 L 2.929688 13.535156 C 2.917969 16.101562 4.855469 18.039062 7.421875 18.039062 Z M 7.421875 18.039062 "/>
</g>
</defs>
<g id="surface1">
<path style=" stroke:none;fill-rule:nonzero;fill:rgb(47.843137%,80.784314%,100%);fill-opacity:1;" d="M 23.203125 18.039062 L 30.042969 18.039062 C 29.925781 24.851562 28.582031 25.972656 24.398438 28.453125 C 23.917969 28.742188 23.757812 29.355469 24.046875 29.851562 C 24.339844 30.332031 24.953125 30.492188 25.449219 30.203125 C 30.378906 27.285156 32.097656 25.507812 32.097656 17.019531 L 32.097656 9.160156 C 32.097656 6.664062 30.070312 4.652344 27.59375 4.652344 L 23.21875 4.652344 C 20.648438 4.652344 18.710938 6.589844 18.710938 9.160156 L 18.710938 13.535156 C 18.695312 16.101562 20.636719 18.039062 23.203125 18.039062 Z M 23.203125 18.039062 "/>
<use xlink:href="#surface5" mask="url(#mask0)"/>
</g>
</svg>
